<svg xmlns="http://www.w3.org/2000/svg"
     width="180.0"
     height="180.0"
     viewBox="0 0 180.0 180.0">
  <path d="M 163.95652173913044 0.0 L 152.2173913043478 7.826086956521739 L 156.13043478260872 10.434782608695652 L 160.04347826086956 13.043478260869565 L 163.95652173913044 15.652173913043478 L 152.2173913043478 23.47826086956522 L 140.47826086956522 31.304347826086957 L 117.0 39.130434782608695 L 93.52173913043478 46.95652173913044 L 93.52173913043478 49.565217391304344 L 93.52173913043478 52.173913043478265 L 93.52173913043478 54.78260869565217 L 93.52173913043478 57.391304347826086 L 93.52173913043478 60.0 L 93.52173913043478 62.608695652173914 L 81.78260869565217 70.43478260869566 L 70.04347826086956 78.26086956521739 L 73.95652173913044 80.86956521739131 L 77.86956521739131 83.47826086956522 L 81.78260869565217 86.08695652173913 L 70.04347826086956 93.91304347826087 L 46.565217391304344 101.73913043478261 L 23.08695652173913 109.56521739130434 L 30.913043478260867 112.17391304347827 L 38.73913043478261 114.78260869565217 L 46.565217391304344 117.3913043478261 L 54.39130434782609 120.0 L 62.21739130434782 122.6086956521739 L 70.04347826086956 125.21739130434783 L 77.86956521739131 127.82608695652173 L 85.69565217391305 130.43478260869566 L 93.52173913043478 133.04347826086956 L 70.04347826086956 140.8695652173913 L 77.86956521739131 143.47826086956522 L 85.69565217391305 146.08695652173915 L 93.52173913043478 148.69565217391303 L 70.04347826086956 156.52173913043478 L 46.565217391304344 164.34782608695653 L 23.08695652173913 172.17391304347825 L 16.043478260869563 180.0"
        fill="none"
        stroke="black"
        stroke-width="1.5"
        stroke-linecap="round"
        stroke-linejoin="round"/>
</svg>